<svg xmlns="http://www.w3.org/2000/svg" width="196" height="35" viewBox="0 0 196 35">
    <g fill="none" fill-rule="evenodd">
        <path d="M-541-106H899V918H-541z"/>
        <path fill="#FFF" d="M48.95 10.5V.7a.7.7 0 0 0-.7-.7H47.22a.7.7 0 0 0-.7.7v9.8a.7.7 0 0 0 .7.7h1.031a.7.7 0 0 0 .7-.7m-5.918 0V.7a.7.7 0 0 0-.7-.7H41.3a.7.7 0 0 0-.7.7v9.8a.7.7 0 0 0 .7.7h1.032a.7.7 0 0 0 .7-.7m6.22 11.464l-.958.464a.697.697 0 0 1-.946-.37c-.469-1.124-.799-2.909-.829-4.733.002-.1 0-.33 0-.35v-3.5c0-.386.31-.7.695-.7h1.042c.383 0 .694.314.694.7v3.85c.005 1.152.211 2.655.646 3.753a.699.699 0 0 1-.343.886m-4.875 2.03c-.898-1.988-1.344-4.52-1.346-6.669 0-.012 0 .013 0 0v-3.85c0-.386-.312-.7-.695-.7h-1.042a.697.697 0 0 0-.695.7v3.85c-.004 2.477.506 5.338 1.587 7.718.166.365.598.52.951.335l.924-.483a.698.698 0 0 0 .316-.9m4.605.785c.733.97 1.8 1.976 3.353 2.914 1.583.886 2.981 1.315 4.182 1.468a.7.7 0 0 0 .791-.64l.08-1.069a.696.696 0 0 0-.59-.742 9.164 9.164 0 0 1-3.254-1.127 9.24 9.24 0 0 1-2.595-2.276.687.687 0 0 0-.933-.143l-.879.604a.707.707 0 0 0-.155 1.01m-5.032 2.847a17.361 17.361 0 0 0 5.52 5.083 17.169 17.169 0 0 0 7.112 2.288.7.7 0 0 0 .765-.664l.051-1.058a.693.693 0 0 0-.617-.728 14.857 14.857 0 0 1-6.092-1.972 15.027 15.027 0 0 1-4.735-4.343.687.687 0 0 0-.937-.175l-.879.572a.706.706 0 0 0-.188.997m-24.807 1.536c1.21-.153 2.618-.582 4.213-1.468 1.565-.938 2.64-1.943 3.379-2.914a.704.704 0 0 0-.157-1.011l-.885-.604a.696.696 0 0 0-.94.143 9.292 9.292 0 0 1-2.615 2.276c-1 .572-2.109.957-3.28 1.127a.697.697 0 0 0-.593.742l.08 1.069c.031.404.396.692.798.64m-10.73-17.93l.884.604a.697.697 0 0 0 .941-.144 9.275 9.275 0 0 1 2.615-2.276 9.28 9.28 0 0 1 3.279-1.127.697.697 0 0 0 .594-.742l-.08-1.069a.704.704 0 0 0-.798-.64c-1.21.153-2.619.582-4.213 1.468-1.565.938-2.64 1.943-3.379 2.915a.704.704 0 0 0 .157 1.01M8.257 24.78c.738.97 1.814 1.976 3.379 2.914 1.594.886 3.003 1.315 4.213 1.468a.703.703 0 0 0 .797-.64l.081-1.069a.697.697 0 0 0-.594-.742 9.279 9.279 0 0 1-3.28-1.127 9.286 9.286 0 0 1-2.614-2.276.696.696 0 0 0-.94-.143l-.885.604a.704.704 0 0 0-.157 1.01m10.09-18.3l-.081 1.068a.696.696 0 0 0 .594.742 9.28 9.28 0 0 1 3.279 1.127 9.28 9.28 0 0 1 2.615 2.276c.227.288.638.35.94.144l.885-.605a.704.704 0 0 0 .157-1.01c-.739-.972-1.814-1.977-3.379-2.915-1.595-.886-3.003-1.315-4.213-1.469a.704.704 0 0 0-.797.641M6.61 13.117c-.472 1.125-.805 2.559-.835 4.383.03 1.824.363 3.259.835 4.383a.704.704 0 0 0 .954.37l.965-.464a.696.696 0 0 0 .346-.886 9.267 9.267 0 0 1-.663-3.403 9.267 9.267 0 0 1 .663-3.403.696.696 0 0 0-.346-.886l-.965-.464a.704.704 0 0 0-.954.37m25.01 13.512l-.886-.572a.695.695 0 0 0-.944.175 15.093 15.093 0 0 1-4.77 4.343 15.047 15.047 0 0 1-6.137 1.972.695.695 0 0 0-.623.728l.052 1.058c.019.4.37.701.77.664a17.388 17.388 0 0 0 7.166-2.288 17.44 17.44 0 0 0 5.561-5.083.703.703 0 0 0-.19-.997M15.915.003A17.39 17.39 0 0 0 8.75 2.291a17.447 17.447 0 0 0-5.562 5.083.703.703 0 0 0 .19.997l.886.572c.311.2.73.127.944-.175a15.087 15.087 0 0 1 4.77-4.343 15.05 15.05 0 0 1 6.138-1.972.694.694 0 0 0 .621-.727l-.05-1.06a.703.703 0 0 0-.772-.663M3.187 27.626A17.447 17.447 0 0 0 8.75 32.71a17.384 17.384 0 0 0 7.165 2.288c.4.037.752-.263.771-.664l.051-1.058a.694.694 0 0 0-.621-.728 15.05 15.05 0 0 1-6.138-1.972 15.09 15.09 0 0 1-4.77-4.343.696.696 0 0 0-.944-.175l-.886.572a.703.703 0 0 0-.19.997M18.312.666l-.052 1.06a.695.695 0 0 0 .623.727c2.182.206 4.273.89 6.136 1.972a15.09 15.09 0 0 1 4.771 4.343.695.695 0 0 0 .944.175l.886-.572a.703.703 0 0 0 .19-.997 17.44 17.44 0 0 0-5.562-5.083A17.393 17.393 0 0 0 19.083.003a.704.704 0 0 0-.771.664M1.606 10.133A17.512 17.512 0 0 0 0 17.5a17.515 17.515 0 0 0 1.606 7.368c.168.365.605.52.962.335l.936-.483a.693.693 0 0 0 .32-.9c-.915-2-1.37-4.16-1.368-6.32-.002-2.16.453-4.32 1.367-6.319a.693.693 0 0 0-.319-.9l-.936-.484a.704.704 0 0 0-.962.336m80.538 19.03c1.21-.154 2.618-.583 4.213-1.469 1.565-.938 2.64-1.943 3.379-2.914a.704.704 0 0 0-.157-1.011l-.885-.604a.696.696 0 0 0-.94.143 9.292 9.292 0 0 1-2.615 2.276c-1 .572-2.109.957-3.28 1.127a.697.697 0 0 0-.593.742l.08 1.069c.031.404.396.692.798.64m-10.73-17.93l.885.604a.697.697 0 0 0 .94-.144 9.275 9.275 0 0 1 2.615-2.276 9.28 9.28 0 0 1 3.279-1.127.697.697 0 0 0 .594-.742l-.08-1.069a.704.704 0 0 0-.798-.64c-1.21.153-2.618.582-4.213 1.468-1.565.938-2.64 1.943-3.379 2.915a.704.704 0 0 0 .157 1.01m-.157 13.549c.739.97 1.814 1.976 3.379 2.914 1.595.886 3.003 1.315 4.213 1.468a.703.703 0 0 0 .797-.64l.081-1.069a.697.697 0 0 0-.594-.742 9.279 9.279 0 0 1-3.28-1.127 9.286 9.286 0 0 1-2.614-2.276.696.696 0 0 0-.94-.143l-.885.604a.704.704 0 0 0-.157 1.01m10.09-18.3l-.081 1.068a.696.696 0 0 0 .594.742 9.28 9.28 0 0 1 3.28 1.127 9.28 9.28 0 0 1 2.614 2.276c.227.288.638.35.94.144l.885-.605a.704.704 0 0 0 .157-1.01c-.739-.972-1.814-1.977-3.379-2.915-1.595-.886-3.003-1.315-4.213-1.469a.704.704 0 0 0-.797.641M69.61 13.117c-.472 1.125-.804 2.559-.835 4.383.03 1.824.363 3.259.835 4.383a.704.704 0 0 0 .954.37l.965-.464a.696.696 0 0 0 .346-.886 9.267 9.267 0 0 1-.663-3.403 9.267 9.267 0 0 1 .663-3.403.696.696 0 0 0-.346-.886l-.965-.464a.704.704 0 0 0-.954.37m20.82-.37l-.966.464a.696.696 0 0 0-.346.886 9.281 9.281 0 0 1 .663 3.403 9.281 9.281 0 0 1-.663 3.403.696.696 0 0 0 .346.886l.966.464a.703.703 0 0 0 .953-.37c.472-1.124.804-2.559.835-4.383-.03-1.824-.363-3.258-.835-4.383a.703.703 0 0 0-.953-.37m4.19 13.882l-.886-.572a.695.695 0 0 0-.944.175 15.093 15.093 0 0 1-4.77 4.343 15.047 15.047 0 0 1-6.137 1.972.695.695 0 0 0-.623.728l.052 1.058c.02.4.37.701.77.664a17.388 17.388 0 0 0 7.166-2.288 17.44 17.44 0 0 0 5.561-5.083.703.703 0 0 0-.19-.997M78.915.003a17.39 17.39 0 0 0-7.165 2.288 17.447 17.447 0 0 0-5.561 5.083.703.703 0 0 0 .189.997l.886.572c.311.2.73.127.944-.175a15.087 15.087 0 0 1 4.77-4.343 15.05 15.05 0 0 1 6.138-1.972.694.694 0 0 0 .621-.727l-.05-1.06a.703.703 0 0 0-.772-.663M66.188 27.626a17.447 17.447 0 0 0 5.561 5.083 17.384 17.384 0 0 0 7.165 2.288c.4.037.752-.263.771-.664l.051-1.058a.694.694 0 0 0-.621-.728 15.05 15.05 0 0 1-6.138-1.972 15.09 15.09 0 0 1-4.77-4.343.696.696 0 0 0-.944-.175l-.886.572a.703.703 0 0 0-.19.997M81.313.666l-.052 1.06a.695.695 0 0 0 .623.727c2.182.206 4.273.89 6.137 1.972a15.09 15.09 0 0 1 4.77 4.343.695.695 0 0 0 .944.175l.886-.572a.703.703 0 0 0 .19-.997 17.44 17.44 0 0 0-5.562-5.083A17.393 17.393 0 0 0 82.083.003a.704.704 0 0 0-.771.664m-16.706 9.466A17.512 17.512 0 0 0 63 17.5a17.515 17.515 0 0 0 1.606 7.368c.168.365.605.52.962.335l.936-.483a.693.693 0 0 0 .32-.9c-.915-2-1.37-4.16-1.368-6.32-.002-2.16.453-4.32 1.368-6.319a.693.693 0 0 0-.32-.9l-.936-.484a.704.704 0 0 0-.962.336m31.787 0A17.518 17.518 0 0 1 98 17.5a17.52 17.52 0 0 1-1.607 7.368.705.705 0 0 1-.961.335l-.937-.483a.693.693 0 0 1-.319-.9c.914-2 1.37-4.16 1.367-6.32.003-2.16-.453-4.32-1.367-6.319a.693.693 0 0 1 .32-.9l.936-.484a.704.704 0 0 1 .961.336"/>    </g>
</svg>
